<svg version="1.1" xmlns="http://www.w3.org/2000/svg" fill-rule="evenodd" clip-rule="evenodd" height="1024" width="1024" viewBox="0 0 1024 1024"><path d="M306.3 173.2c4.5 10.6 7.6 21.2 6.1 31.8-1.5 10.6-12.1 12.1-19.7 18.2-6.1 4.5-9.1 13.6-15.1 18.2-6.1 3-13.6 7.6-21.2 9.1-7.6 0-12.1-7.6-19.7-9.1-4.5-1.5-10.6-3-16.7-3-1.5-1.5-4.5 0-6.1 3-1.5 6.1-4.5 10.6-6.1 16.7 4.5 1.5 9.1 0 13.6 0 7.6-1.5 15.1-4.5 21.2-6.1-4.5 6.1-10.6 10.6-16.7 15.1-6.1 6.1-6.1 16.7-15.1 19.7-7.6 0-16.7 0-24.2-3 6.1-1.5 10.6-3 16.7-4.5 1.5-3 3-6.1 4.5-9.1-9.1 3-18.2 6.1-27.2 6.1-4.5-1.5-6.1-6.1-10.6-9.1-9.1-7.6-16.7-15.1-22.7-25.7-1.5-1.5-3-4.5-3-6.1 6.1 1.5 10.6 7.6 16.7 9.1 9.1 3 19.7 1.5 27.2-3 7.6-4.5 12.1-9.1 19.7-13.6 16.7-3 33.3 0 50-3 6.1-1.5 12.1-6.1 18.2-7.6 6.1-3 12.1-1.5 18.2-6.1 7.4-10.7 5.9-25.9 12-38z m180.1 42.4c3 0 6.1-1.5 9.1 0 21.2 6.1 42.4 16.7 56 34.8 9.1 13.6 12.1 30.3 9.1 45.4-4.5 24.2-21.2 42.4-36.3 60.6-6.1 10.6-16.7 16.7-24.2 25.7-21.2 18.2-43.9 37.9-68.1 53 7.6 0 13.6 1.5 21.2 4.5 7.6 4.5 16.7 7.6 24.2 13.6-13.6 12.1-31.8 19.7-48.4 22.7-10.6 0-21.2 1.5-30.3-1.5-7.6-1.5-15.1-4.5-22.7-7.6 13.6-7.6 28.8-15.1 42.4-24.2-10.6 3-19.7 9.1-28.8 13.6-40.9 19.7-80.2 45.4-110.5 80.3-12.1 13.6-22.7 30.3-22.7 48.5 0 16.7 9.1 30.3 21.2 39.4 15.1 12.1 36.3 9.1 54.5 6.1-3 10.6-10.6 18.2-16.7 25.7-3 3-7.6 3-10.6 4.5-12.1 1.5-24.2 0-34.8-1.5-15.1-4.5-25.7-16.7-33.3-30.3-3-7.6-3-16.7-4.5-25.7-3-22.7 0-46.9 12.1-66.6 12.1-21.2 33.3-33.4 53-47 6.1-4.5 15.1-5.7 21.2-13.7h-3c-13.6 8-27.2 13.7-40.9 22.8s-25.7 20.5-33.3 35.6c-4.5 10.6-10.6 22.4-15.1 33-6.1-1.5-12.1-0.2-18.2-0.2s-12.1 4.5-15.1 9c-12.1 15.1-13.6 34.8-13.6 54.5 1.5 12.1 3 24.2 9.1 34.8 9.1 15.1 22.7 28.8 37.8 39.4 9.1 4.5 19.7 7.6 30.3 13.6 1.5 0 1.5 1.5 3 3-9.1 0-16.7-1.5-25.7-3-34.8-4.5-68.1-16.7-99.9-33.3 9.1 6.1 18.2 12.1 27.2 16.7 7.6 4.5 16.7 6.1 25.7 9.1 22.7 9.1 46.9 16.7 72.7 16.7 19.7 1.5 40.9 3 62.1 7.6 18.2 0 36.3 0 53 6.1 18.2 10.6 34.8 22 50 38.7 9.1 10.6 16.7 29.2 18.2 37.2h15.1c-4.5-8-7.6-29.6-12.1-46.3-4.5-15.1-18.2-23.9-31.8-34.5-12.1-7.6-25.7-16.3-40.9-16.3h-10.6c4.5-8 9.1-20.5 3-29.6-3-6.1-10.6-8-16.7-11 1.5 7.6 1.5 14.9 0 22.5-3-7.6-4.5-18.3-13.6-22.8-1.5 1.5-3 3-6.1 3-3-1.5-4.5-4.6-9.1-7.6-3-1.5-4.5 3-6.1 4.5-4.5 6.1-10.6 9.1-16.7 10.6 3-6.1 7.6-12.1 12.1-16.7-7.6-1.5-13.6-3-21.2-4.5-1.5 0-4.5-1.5-6.1-1.5 6.1 0 12.1 3 18.2 0 18.2-6.1 30.3-21.2 39.4-36.3 4.5 13.6 13.6 25.7 25.7 30.3 19.7 9.1 40.9 7.6 60.5 1.5-6.1 3-10.6 6.1-13.6 10.6-3 1.5-1.5 3 0 6.1 4.5 4.5 10.6 7.6 16.7 9.1 7.6 3 13.6-4.5 21.2-4.5 9.1 0 15.1 9.1 18.2 15.1 6.1 15.1 10.6 30.3 15.1 46.9 4.5 18.2 9.1 36.3 13.6 54.5 1.5 9.1 1.5 19.7 0 28.8 0 6.1-3 10.6-6.1 15.1 6.1-1.5 13.6-6.1 13.6-12.1 1.5-10.6 0-21.2-3-31.8-6.1-25.7-13.6-51.5-19.7-77.2 1.5 1.5 3 3 3 6.1 10.6 18.2 19.7 36.3 25.7 56 6.1 13.6 9.1 28.8 6.1 42.4-1.5 7.6-6.1 16.7-13.6 18.2-13.6 3-27.2 3.7-42.4 3.7-10.6 0-21.2 0.7-31.8 0.7h-77.2c-6.1-9-10.6-12.8-12.1-20.4 4.5-15.1 22.7-20.8 36.3-16.2 12.1 4.5 25.7 4.8 39.4 6.3 0-7.6 1.5-15 0-22.6-3-10.6-9.1-18.1-16.7-25.7-6.1-6.1-13.6-12.1-21.2-16.6-18.2-9.1-36.3-13.6-56-18.2-6.1-1.5-12.1-1.5-18.2-1.5-1.5 22.7-1.5 45.4-4.5 68.2-3 15.1-15.1 25.7-27.2 33.2-10.6 7.6-22.7 13.5-36.3 13.5h-31.8c-12.1 0-22.7 0.1-34.8-1.4-7.6 0-16.7 1.6-25.7-1.5 18.2 0 36.3-3 54.5-4.6-18.2 0-34.8-1.5-51.5-1.5h-21.2c-6.1 0-12.1-9-13.6-16.6 0-4.5 4.5-3.8 7.6-3.8 9.1 1.5 18.2 3.4 27.2 3.4-7.6-3-16.7-7.4-25.7-8.9-4.5 0-10.6 1.6-13.6 6.2s-1.5 10.6 1.5 15.2c6.1 7.6 15.1 9.1 22.7 13.7-10.6 0-21.2-1.5-30.3-7.6-6.1-4.5-7.6-13.6-4.5-19.7 1.5-6.1 9.1-12.1 16.7-13.6 10.6-1.5 22.7 0 31.8 6.1 3 1.5 6.1 4.5 10.6 7.6 7.6 0 16.7 0 25.7-3 7.6-7.6 10.6-18.2 12.1-28.8 3-25.7-6.1-50-13.6-74.2-15.1-4.5-30.3-9.1-40.9-18.2-12.1-9.1-24.2-18.2-34.8-27.3-13.6-12.1-25.7-27.3-30.3-45.4-6.1-25.7-12.1-51.5-7.6-78.8 4.5-19.7 13.6-40.9 27.2-56 15.1-19.7 33.3-36.3 54.5-50-7.6 9.1-16.7 18.2-24.2 27.3-1.5 6.1-6.1 10.6-7.6 15.1 6.1-7.6 10.6-18.2 19.7-25.7 9.1-7.6 19.7-15.1 28.8-21.2 6.1-4.5 12.1-10.6 19.7-13.6-18.2 18.2-37.8 36.3-53 56-7.6 9.1-12.1 19.7-15.1 31.8-3 7.6-4.5 15.1-6.1 22.7-1.5 10.6 3 19.7 6.1 30.3-6.1-10.6-10.6-21.2-12.1-31.8-1.5-16.7 4.5-31.8 10.6-46.9 0 1.5 0 1.5-1.5 1.5-4.5 7.6-9.1 15.1-10.6 24.2-3 12.1-4.5 24.2-3 34.8 1.5 12.1 9.1 19.7 18.2 27.3 9.1 6.1 19.7 10.6 30.3 6.1 7.6-1.5 13.6-7.6 12.1-15.1 0-4.5-4.5-7.6-9.1-6.1-3 6.1-7.6 15.1-16.7 15.1-6.1 0-10.6-4.5-13.6-9.1-7.6-12.1-9.1-27.3-4.5-40.9 3-10.6 7.6-21.2 15.1-30.3-3 13.6-7.6 27.3-10.6 40.9-1.5 9.1-1.5 18.2 3 25.7 3 4.5 10.6 9.1 16.7 6.1 4.5-3 4.5-10.6 4.5-15.1-1.5-6.1-1.5-13.6-7.6-15.1-6.1 4.5-7.6 12.1-6.1 18.2 1.5 4.5 4.5 7.6 9.1 9.1-7.6 0-15.1-4.5-16.7-12.1-3-6.1-3-12.1 0-18.2 4.5-7.6 15.1-7.6 21.2-1.5 4.5 6.1 6.1 15.1 4.5 22.7 4.5-1.5 9.1-1.5 12.1 0 4.5 4.5 6.1 10.6 4.5 16.7-3 7.6-9.1 15.1-16.7 18.2-12.1 4.5-27.2 1.5-37.8-6.1-12.1-9.1-22.7-24.2-21.2-40.9 0-7.6-1.5-15.1 1.5-24.2 1.5-7.6 4.5-13.6 7.6-21.2-9.1 13.6-19.7 27.3-25.7 42.4-3 15.1-1.5 28.8-1.5 42.4 1.5 18.2 3 34.8 10.6 51.5 3 7.6 7.6 15.1 13.6 21.2-1.5-4.5-4.5-7.6-6.1-10.6 10.6 9.1 21.2 19.7 34.8 22.7 10.6 3 21.2 1.5 31.8-3 7.6-3 10.6-10.6 12.1-18.2 3-13.6-1.5-28.8-10.6-39.4-4.5-4.5-12.1-7.6-16.7-12.1 9.1 0 19.7 0 28.8-4.5 6.1-4.5 12.1-10.6 13.6-18.2-1.5-6.1-3-12.1-7.6-15.1-6.1-6.1-13.6-9.1-22.7-12.1-1.5-4.5-3-9.1-4.5-13.6 21.2 7.6 46.9 6.1 66.6-3 9.1-4.5 18.2-10.6 22.7-19.7 4.5-7.6 6.1-16.7 3-24.2-3-9.1-12.5-16.7-21.6-18.2-6.1 0-11.6 0-18.6 1.5v1.5c0 1.5 9.5 0 14 1.5 7.6 1.5 16.1 4.5 17.6 13.6 3 9.1 0.5 19.7-4.1 28.8-6.1 10.6-19.4 15.1-30 18.2 4.5-4.5 9.2-6.1 13.7-10.6 1.5-6.1 6.1-12.1 6.1-18.2 0-3-3-4.5-6-6.1 1.5 1.5 1.5 4.5 1.5 6.1-4.5 3-10.6 6.1-13.6 1.5-3-4.5-4.5-9.1-1.5-13.6 1.5-6.1 7.6-7.6 12.1-7.6 9.1 0 15.1 10.6 13.6 18.2s-6.1 12.1-10.6 18.2c6.1-3 10.6-9.1 13.6-13.6 4.5-6.1 6.1-12.1 3-18.2-4.5-7.6-15.1-10.6-24.2-9.1-4.5 1.5-10.6 4.5-12.1 9.1-1.5 6.1-1.5 13.6 4.5 18.2 3 3 6.1 4.5 9.1 7.6-3 4.5-10.6 9.1-16.7 6.1-10.6-9.1-15.1-27.3-7.6-39.4 4.5-4.5 12.1-7.6 18.2-9.1 1.5-1.5 1.5-3 3-4.5 7.6-6.1 15.1-10.6 22.7-15.1 6.1 6.1 12.1 12.1 21.2 13.6 13.6 3 25.7 6.1 37.8 4.5 6.1 0 12.1 0 16.7-1.5 18.2-4.5 34.8-13.6 53-21.2 7.6-3 16.7-7.6 24.2-10.6-10.6-4.5-21.2-7.6-27.2-16.7-4.5-10.6-6.1-21.2-4.5-31.8 3 9.1 6.1 18.2 13.6 25.7 6.1 7.6 13.6 13.6 19.7 21.2 7.6-4.5 16.7-7.6 24.2-13.6-6.1 1.5-13.6 3-21.2 1.5-4.5-1.5-9.1-4.5-12.1-9.1-7.6-12.1-10.6-25.7-18.2-37.9-1.5-3-4.5-6.1-7.6-9.1-13.6-7.6-22.7-21.2-36.3-28.8-9.1-4.5-21.2-6.1-25.7-16.7 18.2 0 36.3 4.5 51.5 13.6 12.1 6.1 21.2 18.2 27.2 30.3 6.1 10.6 9.1 22.7 16.7 33.3 9.1 7.6 21.2 13.6 30.3 21.2 6.1-1.5 10.6-4.5 15.1-7.6-4.5 4.5-13.5 7.6-19.6 10.6-29.9 17.8-59.9 34.5-91.9 51.2v1.5c17-4.5 24.1-9.1 34.7-15.1 31.8-16.7 65-34.8 93.8-57.5 4.5-3 6.8-7.6 11.3-10.6 19.7-18.2 39.7-36.3 50.3-62.1 6.1-15.1 10.8-30.3 10.8-45.4 0-16.7-4.4-31.8-10.5-45.4-4.5-7.8-10.4-15.3-18-21.4z m2.4 1.5c1.5 1.5 3.3 3 4.8 4.5 15.1 10.6 22.3 28.8 23.8 46.9 0 6.1-0.4 12.1-0.4 18.2V267c0-19.6-10-40.8-28.2-49.9z m5.2 134.8c-3.1 4.6 4.5 0 0 0z m-28.8 30.3c4.5-1.5 6.1-4.5 9.1-7.6 6.1-6.1 13.6-12.1 18.2-21.2-9.1 9.1-18.2 19.7-27.3 28.8z m-1.5 1.5z m-10.6 9.1zM180.6 716.9c7.6 15.1 19.7 30.3 21.2 46.9 1.5 9.1 1.5 19.7-1.5 28.8-3 13.6-12.1 27.3-25.7 33.3 4.5-1.5 10.6-1.5 15.1-3 6.1-9.1 10.6-19.7 13.6-30.3 4.5-24.2-3-50-16.7-69.7 33.3 4.5 66.6 9.1 101.4 13.6 1.5 10.6-1.5 21.2-1.5 31.8-1.5 22.7-7.6 46.9-24.2 63.6-9.1 9.1-24.2 9.1-37.8 12.1 9.1-1.5 16.7-1.5 24.2-3 12.1-1.5 21.2-12.1 27.2-21.2 6.1-10.6 10.6-21.2 12.1-31.8 3-18.2 4.5-36.3 6.1-54.5-37.8-3-75.6-7.5-113.5-16.6z m181.7 119.6c1.5 4.5 1.5 9.1 4.5 12.1 0-7.6 1.5-16.7-1.5-25.7-1.5 4.5-4.5 7.6-3 13.6z m-12.1 1.6c1.5 4.5 3 10.6 9.1 10.6-1.5-9.1 1.5-18.2-3-25.7-4.6 2.9-9.2 9-6.1 15.1zM201.8 848c0 2 6.1 2 6.1 0-1.5-3-4.6-3-6.1 0z m106-621.8c7.6-6.1 18.2-6.1 27.2-4.5 19.7 3 37.8 10.6 54.5 19.7 7.6 4.5 13.6 10.6 22.7 16.7 6.1 3 13.6 4.5 21.2 7.6 22.7 4.5 45.4 9.1 68.1 10.6-19.7 1.5-37.8 0-56-1.5-13.6 0-28.8-1.5-40.9-7.6-19.7-9.1-39.4-18.2-62.1-18.2-25.7 1.5-50 7.6-75.7 15.1 12.2-13.6 25.9-27.3 41-37.9z m-18.2 40.9c18.2-3 36.3-6.1 54.5-6.1 7.6 0 15.1 3 22.7 4.5 24.2 4.5 48.4 9.1 68.1 22.7 13.6 10.6 30.3 16.7 46.9 12.1 7.6-1.5 15.1-4.5 21.2-9.1-6.1 15.1-13.6 30.3-25.7 42.4-7.6 4.5-15.1 7.6-22.7 4.5-10.6-4.5-18.2-12.1-28.8-18.2-19.7-15.1-43.9-25.7-69.6-28.8-30.3-3-62.1 4.5-93.8 9.1 3-1.5 6.1-3 9.1-4.5 15.1-7.6 30.3-13.6 45.4-18.2 21.2-1.5 40.9 0 60.5 0-12.1-3-22.7-6.1-34.8-9.1-22.7-3-46.9 1.5-69.6 3 6-1.3 10.6-2.8 16.6-4.3zM224 277.7c0-6.1 17.7-15.1 26.8-13.6 7.6-1.5 11.9 4.5 13.4 9.1 1.5 4.5 3.7 9.1 2.1 12.1-6.1 6.1-7.3 13.6-5.7 21.2 3 0 6.2 1.5 9.2 1.5 1.5 6.1 0.1 10.6 0.1 16.7 3 1.5 7.6 1.5 9.1 6.1 4.5 4.5 6.1 10.6 3 16.7-4.5 4.5-12.1 3-18.2 3 3 6.1 10.6 10.6 16.7 10.6 1.5 4.5 0 9.1-1.5 13.6-1.5 3-3 3-6.1 3-4.5 1.5-9.1 0-15.1 0-6.1 0-10.6-4.5-16.7-4.5-6.1-1.5-13.6-1.5-19.7-3-4.5-3-12.1-4.5-18.2-1.5-4.5 3-9.1 7.6-10.6 13.6-1.5 6.1 0 12.1 4.5 16.7 3 3 7.6 1.5 10.6 1.5 7.6 0 13.6-3 19.7-7.6 3-3 6.1-6.1 10.6-6.1-1.5 4.5-6.1 9.1-9.1 12.1-3 4.5-7.6 9.1-13.6 10.6-10.6 3-22.7 3-34.8 0-10.6-3-21.2-13.6-19.7-27.3 0-9.1 7.6-18.2 15.1-24.2 10.6-7.6 24.2-13.6 37.8-10.6 6.1 0 13.6 1.5 19.7 1.5 3-1.5 4.5-4.5 6.1-7.6 3-7.6 4.5-16.7 6.1-25.7 0-3-1.5-7.6-3-10.6-10.6 7.6-12.1 21.2-21.2 28.8 0 1.5-1.5 1.5-3 3-12.1 1.5-25.7 0-37.8 1.5-12.1 1.5-19.7 15.1-27.2 24.2-9.1 7.6-21.2 4.5-31.8 3 7.6-1.5 16.7-1.5 22.7-6.1 10.6-4.5 15.1-15.1 22.7-22.7 10.6-4.5 21.2-6.1 33.3-4.5 6.1 1.5 15.1 1.5 19.7-4.5 4.5-6.1 7.6-12.1 7.6-18.2-3-6.1-10.1-12.1-7.1-19.7 1.5-1.5 3.5-3 3.5-6.1v-6z m-93.3 15.2c4.5-6.1 10.6-12.1 18.2-12.1 9.1 0 18.2 0 25.7 1.5 0 1.5 1.5 1.5 1.5 1.5-6.1 1.5-13.6 0-21.2 3-6.1 1.5-12.1 4.5-16.7 9.1-4.5 6.1-4.5 13.6-9.1 19.7-3 6.1-7.6 13.6-16.7 15.1-3 0-7.6 1.5-10.6-3 0-3 0-6.1 1.5-9.1 7.6 1.5 15.1-3 19.7-9.1 3.1-4.5 3.1-12.1 7.7-16.6z m437.4-12.2c12.1 10.6 21.2 25.7 22.7 40.9 1.5 27.3-15.1 54.5-39.4 65.1-16.7 4.5-34.8 1.5-50-3 6.1-4.5 12.1-9.1 18.2-15.1 22.8-24.3 45.5-53 48.5-87.9z m-420.8 13.7c7.6-6.1 18.2-7.6 27.2-6.1 7.6 1.5 13.6 6.1 19.7 9.1 7.6 3 16.7 4.5 24.2 6.1 1.5 4.5 4.5 9 4.5 13.5-1.5 7.6-9.1 12-15.1 12h-19.7c-7.6 0-16.7 1.6-22.7 6.2-7.6 4.5-7.6 13.7-15.1 18.2-9.1 4.5-21.2 9.1-31.8 7.6-9.1-1.5-13.6-9.1-18.2-15.1-6.1-12.1-6.1-27.3-4.5-40.9 1.5 10.6 1.5 21.2 9.1 28.8 4.5 6.1 13.6 1.5 18.2-3 10.6-10.7 15.2-25.8 24.2-36.4z m160.5 9.1c19.7-4.5 39.4-7.6 60.5-6.1 7.6 0 15.1 4.5 21.2 9.1 13.6 9.1 27.2 19.7 36.3 34.8 6.1 9.1 7.6 21.2 10.6 31.8 0 6.1 1.5 10.6 1.5 16.7-18.2-13.6-34.8-28.8-51.5-42.4-28.8-25.7-68.1-36.3-106-37.9 9.2-3 18.3-4.5 27.4-6z m39.3 9c18.2 4.5 36.3 12.1 50 25.7 10.6 9.1 16.7 21.2 25.7 31.8-4.5-7.6-9.1-15.1-13.6-21.2-7.6-12.1-16.7-24.2-30.3-28.8-10.6-4.4-21.2-5.9-31.8-7.5z m69.7 6.1c10.6 9.1 21.2 18.2 33.3 27.3 7.6 7.6 18.2 9.1 28.8 13.6-9.1 0-18.2 0-25.7 3-1.5 10.6-3 19.7-7.6 30.3-4.5-13.6 0-28.8-6.1-42.4-7.6-10.6-16.7-19.7-22.7-31.8z m177.1 4.5c6.1 12.1 10.6 25.7 15.1 37.9 4.5 12.1 7.6 24.2 4.5 36.3-7.6 25.7-24.2 48.5-48.4 59.1-9.1 3-19.7 7.6-28.8 3-6.1-1.5-3-9.1-4.5-13.6-4.5-22.7-18.2-40.9-31.8-59.1 13.6 4.5 28.8 7.6 43.9 4.5 19.7-4.5 37.8-19.7 43.9-39.4 4.6-9 4.6-18.1 6.1-28.7z m-251.3 7.6c9.1 1.5 18.2 6.1 25.7 10.6 12.1 7.6 16.7 21.2 22.7 33.3 4.5 9.1 12.1 16.7 18.2 25.7 0 3-6.1 3-7.6 1.5-10.6-3-16.7-13.6-21.2-24.2-4.5-9.1-7.6-19.7-15.1-28.8-7.6-6-15.1-12-22.7-18.1z m-49.9 15.2c10.6 3 21.2 6.1 30.3 12.1 6.1 3 10.6 7.6 13.6 13.6 4.5 15.1 3 31.9 6.1 45.5 1.5 12.1 10.6 18.9 21.2 25.9h-24.2c-1.5-15-3-28.9-6.1-42.5-3-6.1-4.5-16-10.6-20.5-7.6-9.1-18.2-17.1-27.2-23.1-3.1-3.1-1.6-8-3.1-11z m89.3 4.5c7.6 3 12.1 10.6 18.2 16.7s10.6 13.6 16.7 18.2c7.6 4.5 15.1 7.6 24.2 9.1-12.1 4.5-24.2 3-33.3-3-7.6-6.1-9.1-13.6-13.6-21.2-4.7-6.2-9.2-12.2-12.2-19.8z m-84.8 28.8c7.6-4.5 15.1 1.5 19.7 6.1 7.6 10.6 7.6 25.7 10.6 37.9 1.5 9.1 7.6 16.7 10.6 25.7-4.5-1.5-9.1-4.5-13.6-7.6-6.1 4.5-6.1 12.1-9.1 19.7-9.1-13.6-15.1-30.3-12.1-46.9 0-6.1 1.5-12.1 0-18.2s-7.6-10.7-6.1-16.7z m-16.7 6.6c1.5-1.5 4.5-1.8 6.1-1.8 4.5 9.1 9.1 19.5 16.7 25.6 0 1.5-1.5 3-3 3-4.5-1.5-9.1-3.1-15.1-3.1-9.1 0-19.7 0-25.7 9.1-7.6 7.6-7.6 22.7 1.5 30.3 4.5 3 9.1 7.6 15.1 4.5 4.5-3 9.1-7.6 9.1-13.6 0-4.5-6.1-6.1-9.1-6.1 0-1.5 0-4.5 1.5-6.1 4.5-1.5 7.6 0 12.1 1.5-3-3-7.6-6.1-12.1-6.1-4.5 3-4.5 9.1-4.5 13.6-3 1.5-6.1 3-9.1 1.5-4.5-7.6-6.1-18.2 3-24.2 6.1-3 13.6-4.5 21.2-1.5 6.1 3 6.1 10.6 7.6 16.7 1.5 3-1.5 4.5-3 4.5 1.5 4.5 1.5 10.6-1.5 15.1-3 6.1-7.6 10.6-13.6 13.6-6.1 0-13.6 0-19.7-4.5-6.1-3-9.1-10.6-13.6-15.1-3-1.5-6.1-1.5-7.6 0-6.1 1.5-10.6 3-16.7 3 9.1-7.6 18.2-13.6 22.7-24.2 3-7.6 1.5-16.7 0-24.2 4.5-6.1 12.1-9.1 19.7-13.6 0 3-1.5 6.6-1.5 8.1 1.5 4.5 4.5 11.2 6.1 11.2h10.6c1.3-8 1.3-12.7 2.8-17.2z m162 47.9c16.7-15.1 36.3-30.3 53-43.9 9.1 7.6 16.7 18.2 22.7 28.8 7.6 10.6 12.1 22.7 12.1 34.8-1.5 12.1-13.6 19.7-22.7 25.7-10.6 4.5-21.2 9.1-33.3 6.1 1.5-9.1 10.6-18.2 7.6-28.8-4.5 7.6-9.1 13.6-15.1 19.7-6.1 6.1-12.1 13.6-19.7 18.2-9.1 6.1-19.7 9.1-28.8 9.1-7.6 0-13.6 0-19.7 1.5 12.1 0 24.2 3 34.8-1.5 15.1-6.1 27.2-16.7 37.8-28.8 0 15.1 0 30.3-6.1 43.9-1.5 4.5-4.5 9.1-7.6 15.1 9.1-9.1 10.6-21.2 15.1-31.8 1.5 22.7 1.5 46.9-3 69.7-1.5 9.1-4.5 19.7-13.6 22.7s-19.7 1.5-28.8-1.5c-13.6-4.5-25.7-13.6-36.3-22.7-10.6-7.6-21.2-13.6-33.3-16.7 1.5 1.5 4.5 3 6.1 4.5 3 1.5 6.1 0 7.6 1.5 12.1 7.6 24.2 16.7 34.8 25.7 12.1 10.6 30.3 13.6 45.4 12.1 10.6-3 19-9.1 22-19.7 4.5-16.7 2.4-31.8 2.4-48.5V541c16 19.7 37 28.8 56.7 28.8 3 0 8.7-1.5 10.2 0 10.6 4.5 21.7 7.6 30.8 4.5 7.6-1.5 13.9-4.5 19.9-7.6-7.6 13.6-16.5 27.3-30.1 36.3-12.1 7.6-25.7 7.6-39.3 4.5 13.6-6.1 21.2-21.2 19.7-36.3-4.5 7.6-3 16.7-7.6 22.7-9.1 13.6-27.2 18.2-40.9 15.1-10.6 0-21.2-6.1-25.7-13.6 4.5-4.5 10.6-10.6 12.1-16.7 4.5-10.6 3-22.7 0-34.8 0 0 0 1.5-1.5 1.5-1.5 13.6 1.5 28.8-6.1 42.4-6.1 9.1-16.7 16.7-27.2 16.7-10.6 1.5-21.2-1.5-30.3-6.1-12.1-6.1-22.7-16.7-34.8-25.7 7.6 7.6 15.1 16.7 24.2 22.7 6.1 4.5 13.6 6.1 21.2 9.1 10.6 1.5 21.2 3 30.3 3-1.5 9.1-4.5 18.2-12.1 25.7-9.1 9.1-22.7 9.1-34.8 7.6-10.6-1.5-18.2-6.1-24.2-13.6-13.6-18.2-18.2-42.4-31.8-60.6-6.1-7.6-16.7-15.1-28.8-15.1-9.1-1.5-18.2 1.5-25.7 7.6-6.1 7.6-7.6 19.7-4.5 28.8 4.5 10.6 16.7 15.1 27.2 19.7-4.5 6.1-15.1 6.1-21.2 3-9.1-4.5-16.7-15.1-18.2-24.2-1.5-7.6-1.5-15.1-1.5-22.7-6.1 7.6-9.1 15.1-7.6 22.7 1.5 12.1 7.6 22.7 18.2 27.3 10.6 4.5 21.2 1.5 30.3-3 6.1-3 10.6-7.6 12.1-15.1 0-6.1 0-12.1-4.5-16.7-3-3-7.6 0-10.6 1.5 1.5 3 6.1 7.6 4.5 12.1-4.5 4.5-12.1 4.5-16.7-1.5-4.5-7.6-4.5-18.2 3-24.2 7.6-6.1 19.7-6.1 25.7 1.5 13.6 12.1 16.7 33.3 4.5 48.5-10.6 10.6-27.2 15.1-42.4 13.6-13.6-1.5-25.7-10.6-31.8-22.7-6.1-12.1-7.6-25.7-4.5-37.9 3-12.1 12.1-21.2 18.2-31.8 16.7-19.7 34.8-34.8 56-48.5 6.1-4.5 12.1-7.6 19.7-10.6 6.1-3 10.6-7.6 16.7-7.6 18.2 1.5 34.8 9.1 51.5 9.1 10.6 0 19.7-4.5 28.8-7.6 10.6-3 19.7-10.6 28.8-18.2-9-11.8-25.7-16.4-39.3-20.9z m-78.7 71.8c7.6 1.5 13.6-5.5 21.2 1.5h13.6c-12.1-7-22.7-6.1-34.8-1.5zM329 536.7c13.6 1.5 28.8 0 42.4 6.1 15.1 4.5 30.3 9.1 46.9 10.6 13.6 3 27.2-3 36.3-13.6-4.5 3-9.1 6.1-13.6 9.1-7.6 3-15.1 3-22.7 3-22.7-3-43.9-12.1-66.6-18.2-7.6-1.6-15.2 1.5-22.7 3z m127.1-3.1c-1.5 1.5-1.5 3-1.5 4.5 1.5 1.6 6.1-6 1.5-4.5z m124.2-81.7c19.7-15.1 31.8-39.4 37.8-62.1 7.6 19.7 12.1 39.4 12.1 60.6 0 12.1-6.1 22.7-13.6 30.3-13.6 13.6-28.8 22.7-45.4 30.3-9.1 4.5-19.7 6.1-30.3 6.1-22.7-1.5-45.4-12.1-63.6-25.7 9.1-3 19.7-4.5 28.8-9.1 10.6-4.5 18.2-12.1 24.2-21.2 16.7 4.4 34.8-0.1 50-9.2zM185 421.6c0-6.1 25.8-9.1 34.9-3 1.5 7.6-1.5 15.1-6 19.7-9.1 7.6-20.4 12.1-28 21.2-4.5 6.1-11.7 9.1-13.2 16.7-3 6.1-2.8 13.6 0.2 21.2 3 9.1 10.7 13.6 16.7 21.2-12.1-3-22.7-7.6-30.2-15.1-4.5-6.1-7.5-15.1-3-22.7 4.5-10.6 13.6-18.2 22.7-27.3 7.6-7.6 18.2-13.6 27.3-21.2 3-1.5 4.5-4.5 6.1-7.6-4.5-4.5-12.1-3-18.2-3-3 6.1-7.6 10.6-12.1 16.7-10.6 13.6-21.2 25.7-30.3 40.9-6.1 9.1-9.1 22.7-1.5 31.8 4.5 6.1 15.1 7.6 22.7 10.6-9.1 3-19.7 6.1-28.8 1.5-7.6-3-10.6-12.1-10.6-19.7 0-13.6 1.4-28.8 10.5-39.4 13.6-15.1 32.8-27.3 40.8-39.4v-3.1z m421 71.2c10.6-7.6 18.2-18.2 25.7-27.3 0 6.1-1.5 10.6-1.5 16.7 18.2-3 37.8-3 57.5-3 36.3 0 71.1 12.1 99.9 33.3 31.8 24.2 57.5 54.5 80.2 86.3 9.1 15.1 18.2 28.8 30.3 39.4 7.6 9.1 18.2 13.6 25.7 22.7 3-1.5 7.6-1.5 9.1-4.5 3-6.1 0-15.1-6.1-16.7-4.5-3-9.1-6.1-12.1-9.1-4.5-6.1-4.5-13.6 0-19.7 3-3 7.6-3 12.1-3 9.1 3 16.7 10.6 22.7 18.2 6.1 10.6 10.6 22.7 10.6 34.8 0 7.6 0 16.7-7.6 21.2-6.1 4.5-15.1 6.1-22.7 3-16.7-4.5-28.8-16.7-39.4-28.8-13.6-13.6-24.2-30.3-33.3-46.9-13.6-18.2-30.3-31.8-45.4-46.9-9.1-6.1-13.6-15.1-22.7-22.7-4.5-4.5-13.6-9.1-12.1-16.7 12.1 0 18.2 12.1 25.7 18.2 9.1 10.6 19.7 21.2 31.8 28.8-16.7-19.7-36.3-39.4-59-53-21.2-13.6-46.9-19.7-71.1-24.2 4.5 1.5 9.1 3 12.1 4.5 6.1 4.5 12.1 6.1 18.2 7.6 10.6 0 21.2 1.5 30.3 7.6 7.6 4.5 12.1 12.1 12.1 19.7 0 12.1-4.5 27.3-16.7 33.3 6.1 1.5 13.6 1.5 19.7 4.5 3 6.1 9.1 10.6 12.1 18.2 4.5 13.6 6.1 30.3 0 45.4-4.5 12.1-13.6 24.2-25.7 30.3-10.6 3-24.2 4.5-34.8 0-4.5-4.5-10.6-9.1-12.1-13.6-3-10.6 0-22.7 9.1-30.3 4.5-3 13.6-3 16.7 4.5-1.5 4.5-6.1 9.1-6.1 13.6 1.5 3 6.1 3 9.1 3 4.5 0 12.1-1.5 13.6-7.6 3-7.6 3-16.7-3-21.2-9.1-7.6-24.2-7.6-34.8-3-7.6 10.6-16.7 21.2-13.6 34.8 1.5 10.6 9.1 19.7 19.7 25.7 7.6 3 15.1 7.6 22.7 9.1s16.7-1.5 25.7-3c10.6-3 18.2-9.1 27.2-16.7 3-3 6.1-7.6 9.1-10.6 1.5 3 3 6.1 3 7.6 0-3 0-6.1 1.5-10.6 0-3 4.5-4.5 7.6-6.1-1.5-4.5-3-10.6-1.5-15.1 4.5 4.5 7.6 12.1 13.6 13.6-1.5-3-4.5-6.1-6.1-9.1-1.5-4.5 0-9.1 0-13.6 6.1 6.1 13.6 13.6 19.7 21.2 13.6 15.1 27.2 31.8 37.8 48.5 7.6 13.6 16.7 25.7 25.7 39.4 4.5 9.1 10.6 18.1 13.6 27.2C939 783.4 942 817 946.6 850h-121c-7.6 0-18.2 0.8-24.2-6.7-6.1-9.1-7.6-20.8-6.1-31.4 4.5-13.6 21.2-24 33.3-18 9.1 3 10.6 13.7 12.1 21.3 10.6 0 22.7 0.1 34.8-1.5-1.5-4.5 1.5-9.1 1.5-13.6-3 3-3 10.6-7.6 12.1-7.6 3-15.1 1.5-21.2 0 6.1-10.6 13.6-19.7 15.1-31.8-1.5-7.6-1.5-16.7-7.6-22.7-6.1-6.1-13.6-12.1-16.7-21.2-1.5-4.5 0-7.6 3-10.6 13.6 0 30.3 7.6 36.3 21.2 6.1 12.1 10.6 24.2 13.6 36.3 1.5 6.1 1.5 12.1 3 16.7 1.5 3 4.5 7.6 6.1 10.6-4.5 1.5-9.1 0-13.6 0-3-9.1-6.1-18.2-9.1-27.3 0 3-1.5 7.6 1.5 10.6 3 6.1 0 13.6 6.1 18.2 4.5 4.5 12.1 1.5 18.2 4.5 4.5 4.5 4.5 12.1 7.6 18.2 1.5 4.5 4.5 7.6 9.1 9.1-3-3-6.1-7.6-7.6-13.6-3-12.1-13.6-22.7-15.1-36.3-1.5-13.6-4.5-25.7-9.1-37.9-4.5-9.1-12.1-16.7-19.7-24.2-3-3-7.6-4.5-13.6-6.1-7.6-1.5-16.7-3-24.2-4.5-1.5-15.1-3-30.3-6.1-45.4-1.5-6.1-1.5-13.6-6.1-18.2 0 3 1.5 7.6 3 10.6-4.5 3-9.1 6.1-13.6 10.6-1.5 1.5-3 3-1.5 6.1 4.5 6.1 10.6 12.1 10.6 21.2-3 3-7.6 3-12.1 4.5-9.1 0-18.2-3-27.2-1.5-6.1 1.5-7.6 6.1-10.6 9.1 0 9.1 1.5 18.2 1.5 27.3 10.6-7.6 6.1-22.7 6.1-33.3 6.1 4.5 10.6 12.1 13.6 19.7 4.5-6.1 7.6-12.1 9.1-18.2 4.5-4.5 9.1 0 13.6 1.5 3 0 4.5 3 1.5 6.1-9.1 12.1-19.7 25.7-33.3 31.8-10.6 4.5-21.2 7.6-33.3 6.1-1.5-3 1.5-4.5 3-6.1 3-3 7.6-4.5 9.1-9.1 3-9.1 4.5-16.7 9.1-25.7-13.6 7.6-30.3 7.6-45.4 6.1-6.1 0-10.6 3-18.2 1.5-6.1 0-13.6 0-21.2-3-7.6-4.5-18.2-7.6-27.2-9.1 3 4.5 4.5 10.6 4.5 15.1-3 1.5-7.6 3-10.6 3 25.7 18.2 56 27.3 87.8 31.8 10.6 1.5 21.2 3 31.8 0 19.7-9.1 36.3-24.2 53-36.3 4.5-4.5 12.1-3 16.7-3-1.5 4.5-7.6 3-10.6 6.1-15.1 15.1-33.3 28.8-53 37.9-16.7 4.5-34.8 3-51.5 0-15.1-3-31.8-7.6-46.9-15.1-25.7-12.1-48.4-27.3-71.1-43.9-10.6-7.6-21.2-16.7-33.3-21.2-10.6-4.5-22.7-1.5-33.3 0-13.6 3-25.7 9.1-37.8 15.1-1.5 0-4.5-1.5-7.6 0-3 3-6.1 7.6-10.6 6.1-4.5-4.5-6.1-10.6-7.6-16.7-6.1-21.2-12.1-40.9-21.2-60.6 4.5 3 9.1 6.1 13.6 7.6-4.5-3-10.6-7.6-10.6-13.6 0-9.1 4.5-18.2 9.1-27.3 6.1 10.6 18.2 15.1 30.3 16.7 7.6 0 15.1-3 22.7-4.5 6.1 0 12.1 1.5 18.2 1.5 9.1 0 18.2-1.5 25.7-6.1 6.1-3 10.6-7.6 15.1-10.6-6.1 7.6-13.6 15.1-21.2 21.2-10.6 10.6-21.2 19.7-34.8 25.7-7.6 3-15.1 6.1-22.7 6.1-4.5 0-7.6-1.5-12.1-1.5 9.1 3 18.2 3 25.7 1.5 6.1-3 10.6-6.1 16.7-9.1 19.7-9.1 39.4-21.2 53-39.4 9.1-12.1 16.7-28.8 34.8-33.3 13.6-1.5 30.3 0 43.9 4.5 10.6 3 19.7 10.6 28.8 16.7 4.5 3 6.1 9.1 6.1 13.6-16.7-9.1-33.3-18.2-51.5-21.2-15.1-3-30.3 7.6-39.4 19.7-9.1 9.1-18.2 19.7-28.8 28.8-19.7 19.7-42.4 37.9-63.6 56-4.5 6.1-12.1 10.6-16.7 16.7 6.1-1.5 9.1-6.1 15.1-9.1 10.6-4.5 21.2-10.6 31.8-13.6 18.2-3 36.3 0 50 10.6 15.1 12.1 27.8 24.2 44.5 36.3 3 0 9.7-1.5 9.7-1.5v-9.1c-8 1.5-9.7 0-14.2-3-9.1-4.5-12.4-13.6-21.5-18.2-15.1-4.5-29.7-13.6-37.2-28.8-1.5-4.5-4.2-9.1-4.2-13.6 4.5-6.1 9.2-10.6 15.3-15.1 12.1-12.1 24.3-22.7 37.9-33.3 7.6-6.1 16.7-9.1 24.3-7.6 10.6 1.5 21.2 9.1 25.8 19.7 3 7.6-3 16.7-10.6 19.7-4.5 3-9.1 1.5-13.6 1.5 3-4.5 7.6-10.6 3-15.1-6.1-3-13.6 0-18.2 3-1.5 3-4.5 4.5-4.5 7.6 0 10.6 7.6 18.2 16.7 21.2 12.1 3 24.2-1.5 31.8-9.1-12.1 4.5-25.7 0-37.8-3 6.1 0 13.6 1.5 19.7 0 7.6-3 16.7-6.1 18.2-13.6 4.5-10.6-4.5-19.7-10.6-27.3 7.6 1.5 16.7 3 19.7 10.6 1.5 6.1 1.5 13.6 0 19.7s-6.1 9.1-9.1 13.6c9.1-7.6 16.7-16.7 21.2-27.3 1.5-7.6 3-13.6 4.5-21.2 1.5-6.1-3-12.1-7.6-15.1-12.1-10.6-25.7-19.7-42.4-24.2-15.1-1.5-31.8 3-46.9 7.6 7.6-7.6 13.6-13.6 19.7-22.7 3-4.5 9.1-7.6 13.6-7.6 10.6 1.5 22.7-1.5 28.8-12.1 3 3 6.1 4.5 9.1 6.1 1.5-3 3-6.1 1.5-10.6 0-6.1 1.5-15.1-3-21.2 0 6.1 1.5 10.6 0 15.1-4.5 10.6-16.7 15.1-27.2 16.7 4.5-1.5 7.6-3 10.6-6.1 4.5-4.5 6.1-10.6 7.6-16.7 1.5-4.5 0-9.1-3-12.1s-7.6-3-12.1-4.5c6.1 0 10.6 0 15.1 1.5s7.6 1.5 12.1 3c4.5 4.5 7.6 10.6 7.6 16.7 1.5 7.6-3 15.1-9.1 19.7 4.5 3 10.6 6.1 15.1 6.1 7.6-7.6 12.1-18.2 12.1-27.3-1.5-10.6-10.6-16.7-21.2-18.2-10.6-3-22.7-3-33.3-4.5-4.5 1.5-6.1 3-9.1 6.1-3 1.5-7.6 6.1-6.1 10.6 1.5 6.1 9.1 10.6 15.1 13.6-4.5 0-7.6 0-12.1-1.5-4.5-4.5-9.1-10.6-7.6-16.7 1.5-7.6 9.1-9.1 13.6-12.1-4.5 0-10.6 0-15.1-1.5-3 16.7-4.5 33.3-10.6 50-3 9.1-9.1 15.1-16.7 21.2-7.6 9.1-18.2 16.7-31.8 18.2-9.1 0-18.2-1.5-25.7-4.5 10.6-6.1 18.2-18.2 21.2-28.8 1.5-7.6 3-16.7 1.5-24.2 13.5-6.6 25.6-14.2 37.7-23.2z m102.9 7.5c3 12.1-1.5 22.7-6.1 33.3 3-4.5 10.6-4.5 10.6-10.6 3.1-7.5 0.1-16.6-4.5-22.7z m16.7 6.1c-1.5 6.1 0 12.1-3 16.7 0 3-4.5 3-6.1 4.5 9.1 4.5 10.6 15.1 18.2 21.2 3-7.6 3-16.7 1.5-25.7-1.6-6.1-6.1-12.2-10.6-16.7z m16.6 3c9.1 7.6 6.1 21.2 4.5 31.8-1.5 4.5-6.1 7.6-10.6 10.6 3 1.5 4.5 1.5 7.6 3 6.1 1.5 10.6 7.6 16.7 10.6 0-7.6 4.5-12.1 6.1-19.7 0-7.6 0-13.6-4.5-21.2-3.1-7.5-12.2-12.1-19.8-15.1z m112 84.8c0 1.5 0 1.5 0 0z m3.1 6.1c12.1 19.7 25.7 39.4 42.4 54.5 9.1 7.6 18.2 12.1 28.8 12.1 7.6 0 12.1-6.1 13.6-12.1 0-7.6-9.1-12.1-7.6-19.7 9.1-3 15.1 7.6 21.2 13.6-3-12.1-10.6-21.2-18.2-30.3-3-3-6.1-6.1-12.1-6.1-3 0-6.1 1.5-7.6 3-4.5 4.5-1.5 10.6 1.5 13.6 3 4.5 9.1 6.1 12.1 9.1s4.5 7.6 6.1 10.6c1.5 4.5 1.5 12.1-4.5 13.6-6.1 0-13.6 0-18.2-4.5-21.2-16.5-40.9-36.2-57.5-57.4z m-40.9 201.4c-4.5 7.6-6.1 16.7-4.5 24.2 1.5-6.1 4.5-13.6 7.6-19.7 1.5-3 4.5-6.1 6.1-9.1-4.7 0.1-7.7 1.6-9.2 4.6z m-16.7 9.1c0 9.1 1.5 16.7 3 24.2 1.5-9.1 3-19.7 9.1-27.3 0-1.5 0-4.5-1.5-6.1-4.5 1.6-9.1 4.6-10.6 9.2z m21.2 12.1c-1.5 9.1 4.5 16.7 10.6 22.7-1.5-6.1-1.5-13.6-3-19.7 1.5-4.5 3-7.6 3-10.6-4.5 1.5-10.6 3.1-10.6 7.6zM472.8 491.2c16.7 12.1 34.8 22.7 54.5 28.8 12.1 3 25.7 0 37.8-4.5 3 15.1 0 34.8-13.6 45.4-7.6 6.1-18.2 4.5-27.2 4.5-15.1-1.5-34.8-9.1-39.4-25.7-4.6-16.7-7.6-31.8-12.1-48.5z m172.5 1.6c4.5-1.5 10.6-1.5 13.6 3 3 6.1-1.5 12.1-6.1 16.7 1.5-4.5 4.5-9.1 1.5-13.6 0 1.5-1.5 3-1.5 4.5-3 0-6.1 1.5-7.6 0-1.4-3.1 0.1-7.6 0.1-10.6zM76.2 563.9c1.5-16.7 3-33.3 12.1-48.5-1.5 16.7-4.5 34.8 0 53 3 4.5 6.1 9.1 10.6 13.6-7.6 10.6-6.1 22.7-4.5 34.8 3 12.1 9.1 25.7 21.2 30.3 10.6 4.5 22.7 6.1 34.8 3 4.5 0 7.6-6.1 6.1-10.6 0-7.6-1.5-15.1-4.5-21.2s-9.1-9.1-13.6-7.6c-6.1 1.5-10.6 7.6-10.6 13.6 0 7.6 6.1 13.6 13.6 13.6 3 1.5 7.6 1.5 10.6 1.5-1.5 4.5-6.1 6.1-10.6 6.1-7.6 1.5-13.6-4.5-16.7-10.6-6.1-10.6-3-27.3 9.1-33.3 6.1-3 13.6 0 18.2 4.5 7.6 9.1 12.1 21.2 12.1 31.8 0 7.6-1.5 15.1-9.1 19.7-12.1 7.6-27.2 6.1-40.9 1.5-12.1-4.5-18.2-16.7-24.2-27.3-7.7-20.9-13.7-43.6-13.7-67.9z m711.4-4.5c9.1 6.1 16.7 13.6 22.7 21.2 6.1 7.6 7.6 19.7 6.1 30.3 0 10.6-3 21.2-7.6 30.3-6.1 7.6-15.1 15.1-24.2 21.2-4.5 3-9.1 6.1-15.1 9.1 7.6-6.1 16.7-12.1 22.7-21.2 12.1-15.1 18.2-36.3 13.6-56-1.5-13.7-10.6-24.3-18.2-34.9zM348.7 570c12.1 13.6 18.2 31.8 27.2 48.5 4.5 7.6 9.1 15.1 16.7 21.2 13.6 6.1 28.8 4.5 42.4 4.5-6.1 3-13.6 4.5-21.2 6.1-9.1 1.5-19.7-1.5-28.8-4.5 7.6 6.1 18.2 6.1 25.7 10.6-13.6 4.5-30.3 3-43.9-3-12.1-6.1-19.7-18.2-22.7-31.8 4.5-6.1 7.6-12.1 10.6-19.7 3-10.7-1.5-22.8-6-31.9z m-152.9 19.7c4.5-7.6 12.1-15.1 21.2-13.6-3 7.6-10.6 12.1-12.1 19.7-6.1 15.1-7.6 30.3-6.1 45.4 1.5 10.6 7.6 21.2 16.7 27.3 21.2 16.7 43.9 30.3 66.6 39.4 19.7 7.6 37.8 12.1 56 19.7-28.8-1.5-59-6.1-84.8-19.7-16.7-9.1-33.3-18.2-46.9-30.3-10.6-10.6-13.6-25.7-15.1-39.4-1.6-16.7-1.6-33.4 4.5-48.5z m-93.9-6.1c7.6 4.5 13.6 9.1 21.2 12.1 3 1.5 7.6 1.5 12.1 1.5-3 1.5-7.6 1.5-10.6 3-4.5 4.5-7.6 12.1-9.1 18.2 0 10.6 7.6 19.7 12.1 27.3-12.1-4.5-22.7-13.6-27.2-25.7-3-12.1-1.5-24.3 1.5-36.4z m109 12.1c1.5-3 1.5-7.6 6.1-10.6 1.5 15.1-4.5 31.8-1.5 48.5 3 10.6 9.1 18.2 15.1 25.7 4.5 6.1 12.1 9.1 18.2 7.6 6.1 0 9.1-6.1 12.1-9.1 9.1 7.6 4.5 21.2 13.6 28.8 6.1 0 10.6-4.5 15.1-7.6 3-3 4.5-7.6 9.1-6.1 1.5 9.1-7.6 15.1-15.1 19.7 6.1 6.1 15.1 3 21.2 1.5 7.6-3 15.1-9.1 13.6-18.2 3 7.6 6.1 13.6 4.5 21.2-1.5 3-4.5 7.6-7.6 10.6 3 0 6.1 1.5 9.1-1.5 4.5-4.5 4.5-12.1 6.1-19.7 7.6 4.5 9.1 13.6 9.1 21.2 0 3-1.5 6.1-3 9.1 7.6-3 15.1-7.6 19.7-15.1 1.5-4.5 1.5-9.1 1.5-15.1 6.1 6.1 6.1 15.1 4.5 22.7-1.5 4.5-3 9.1-7.6 10.6-7.6 1.5-16.7 0-24.2-1.5-27.2-9.1-54.5-19.7-80.2-33.3-13.6-7.6-28.8-16.7-39.4-31.8-4.5-6.1-6.1-13.6-7.6-21.2 0-12.1 3.1-24.2 7.6-36.4z m629.7-1.5c16.7 24.2 34.8 48.5 54.5 71.2 7.6 9.1 18.2 15.1 27.2 21.2-6.1 0-12.1 0-16.7-1.5-6.1-1.5-9.1-6.1-12.1-9.1-10.6-12.1-16.7-24.2-27.2-36.3-7.6-10.6-16.7-19.7-25.7-30.3-1.5-4.6 0-10.6 0-15.2z m-401.1 54.5c6.1-3 7.6-10.6 10.6-16.7 3 7.6 4.5 17.2 9.1 24.8 1.5 3 3 6.2 3 14.2h-7.6s0 8.6-4.5 11.6c-4.5 1.5-9.1-1-13.6-1-7.6-1.5-15.1-0.5-22.7-3.5 1.5-9.1 13.6-9.3 19.7-13.9-6.1-1.5-10.6-4.7-15.1-7.7 7.5-3.1 13.5-7.8 21.1-7.8z m48.4 63.7c18.2-9.1 37.8-13.6 57.5-15.1 7.6 0 15.1 0 21.2 1.5 7.6 1.5 13.6 6.1 19.7 10.6 22.7 15.1 39.4 39.4 66.6 50 7.6 4.5 16.7 6.1 24.2 9.1-16.7 4.5-33.3 7.6-51.5 9.1-16.7 0-34.8-4.5-48.4-16.7-15.1-15.1-25.7-34.8-46.9-43.9-12.1-7.7-28.8-4.6-42.4-4.6z m-3 4.5c6.1-3 13.6-3 19.7-1.5 9.1 0 16.7 3 25.7 6.1 6.1 3 10.6 9.1 15.1 15.1 9.1 12.1 18.2 27.3 31.8 36.3 10.6 6.1 22.7 6.1 34.8 7.6 24.2 0 46.9-6.1 69.6-10.6-3-4.5-6.1-9.1-9.1-13.6 12.1 3 22.7 9.1 34.8 13.6 1.5 0 4.5 1.5 4.5 3 4.5 12.1 9.1 25.7 10.6 39.4 0 4.5 0 10.6-4.5 13.6-6.1 4.5-13.6 3-19.7 1.5s-12.1-4.5-15.1-10.6c4.5 0 12.1-1.5 12.1-7.6 0-13.6-4.5-27.3-12.1-39.4-27.2 12.1-57.5 19.7-87.8 16.7-25.7-4.5-45.4-27.3-59-50-3-7.6-12.1-12.1-19.7-15.1-10.5-4.5-21.1-4.5-31.7-4.5z m181.6 1.5c4.5 1.5 10.6 3 12.1 7.6 1.5 6.1-3 13.6-10.6 15.1-4.5 0-9.1-4.5-13.6-7.6 4.5 0 9.1 1.5 12.1-1.5 1.5-4.5 0-9 0-13.6z m-328.4 12.1c15.1-6.1 30.3-9.1 45.4-4.5 12.1 3 21.2 9.1 30.3 15.1 9.1 7.6 18.2 15.1 24.2 25.7 6.1 12.1 9.1 25.7 10.6 39.4 0 3 1.5 7.6 0 10.6-6.1-15.1-15.1-28.8-25.7-40.9-12.1-15.1-30.3-27.3-48.4-36.3-10.7-4.5-22.8-10.6-36.4-9.1z m410.2-6c1.5 1.5 6.1 0 6.1 3 0 7.6 0 18.2-6.1 24.2-6.1 4.5-15.1 6.1-24.2 6.1s-18.2-3-25.7-9.1c6.1-1.5 12.1-1.5 16.7-6.1 3-4.5 3-10.6 4.5-15.1 4.5 1.5 9.1 3 10.6 7.6 1.5 6.1 0 10.6 0 15.1 9-4.5 15-15.1 18.1-25.7z m-57.5 3.5h16.7s1.5 5.8 0 8.8c-3 4.5-7.6 7.4-13.6 9-7.6 0-15.1-0.1-22.7-3.1 7.6-3 15.1-4.3 22.7-7.4-1.6-3-1.6-7.3-3.1-7.3z m155.9 23.7c10.6 6.1 13.6 18.2 13.6 30.3-1.5 12.1-7.6 25.7-18.2 31.8-3-9.1-7.6-16.7-10.6-25.7 3 1.5 4.5 3 7.6 4.5 6.1-6.1 7.6-15.1 10.6-22.7 1.5-6.1-1.5-12.1-3-18.2z m-84.8 25.8c4.5-1.5 7.6-4.5 10.6-7.6 9.1 19.7 12.1 42.4 6.1 62.1-1.5 4.5-3 10.6-7.6 12.1-10.6 4.5-22.7 4.5-33.3 6-33.3 1.5-68.1-0.1-101.4-0.1h-19.7c1.5-9 0-27.2 9.1-36.3 10.6-7.6 22.7-10.6 34.8-9 13.6 3 19.7 15.2 30.3 21.2 9.1 4.5 19.7 7.6 28.8 3 6.1-3 9.1-10.6 9.1-16.7-1.5-13.6-7.6-27.3-12.1-40.9 13.5 4.7 30.2 10.7 45.3 6.2z m-39.4 0c3 7.6 6.1 15.1 7.6 22.7s3 16.7-1.5 24.2c-4.5 7.6-15.1 12.1-25.7 9.1-9.1 0-18.2-7.6-25.7-13.6 3 10.6 15.1 13.6 24.2 15.1 6.1 3 12.1 3 16.7 0 9.1-4.5 18.2-12.1 18.2-22.7-1.5-12.1-6.1-22.7-12.1-31.8 10.6 3 21.2 6.1 33.3 4.5 4.5 0 9.1-6.1 13.6 0 6.1 6.1 6.1 16.7 6.1 25.7 0 12.1-6.1 25.7-18.2 31.8-9.1 6.1-21.2 1.5-31.8 3-13.6 1.5-28.8 0-42.4 0-6.1 1.5-10.6 1.5-15.1 1.5-1.5-7.6-1.5-16-7.6-22-1.5 9.1-1.5 15.9-6.1 24.9h10.6c27.2 0 53-0.7 80.2-2.2 7.6-1.5 16.7-3.4 24.2-6.4 12.1-19.7 7.6-44.1 0-65.3-13.6 12.2-33.3 6-48.5 1.5z m-93.8 39.3c-7.6 9.1-9.1 16.2-9.1 33.2h27.2s-1.5-2.9-3-2.9c3-6.1 4.5-16.7 3-22.7-9.1 3-9.1 16.7-12.1 16.7h-12.1c0-8 0-15.9 4.5-21.9 4.5-6.1 10.6-7.9 18.2-9.4 10.6-1.5 22.7 2.1 31.8 9.7-4.5-6.1-10.6-9.6-18.2-11.1-10.5-1.7-21.1 2.3-30.2 8.4z" fill="#BA8961"></path></svg>